<svg xmlns="http://www.w3.org/2000/svg" version="1.1" xmlns:xlink="http://www.w3.org/1999/xlink" xmlns:svgjs="http://svgjs.dev/svgjs" width="2000" height="2242" viewBox="0 0 2000 2242"><g transform="matrix(1,0,0,1,-3.1126417445477728,0)"><svg viewBox="0 0 321 360" data-background-color="#ffffff" preserveAspectRatio="xMidYMid meet" height="2242" width="2000" xmlns="http://www.w3.org/2000/svg" xmlns:xlink="http://www.w3.org/1999/xlink"><g id="tight-bounds" transform="matrix(1,0,0,1,0.49957899999992605,0)"><svg viewBox="0 0 320 360" height="360" width="320"><g><svg></svg></g><g><svg viewBox="0 0 320 360" height="360" width="320"><g><path transform="translate(-9.31575,10.66434) scale(0.39811,0.39811)" d="M827.2 486c-0.2-21.2-13.6-38-13.8-59.2-0.1-21.2 13.1-46.8 12.9-68-6.7-20.1-24.7-31.9-31.4-52-6.7-20.1-2.1-48.6-8.7-68.7-12.6-17.1-33.4-22.7-45.9-39.7-12.6-17.1-17-45.6-29.5-62.6-17.2-12.3-38.7-11.3-56-23.6-17.2-12.3-30.2-38.1-47.5-50.4-20.2-6.4-40.3 1.3-60.5-5.2-20.2-6.4-40.5-26.9-60.7-33.3-21.2 0.2-38 13.6-59.2 13.8-21.2 0.1-46.8-13.1-68-12.9-20.1 6.7-31.9 24.7-52 31.4-20.1 6.7-48.6 2.1-68.7 8.8-17.1 12.6-22.7 33.4-39.7 45.9-17.1 12.6-45.6 17-62.6 29.6-12.3 17.2-11.3 38.7-23.6 56-12.3 17.2-38.1 30.2-50.4 47.5-6.4 20.2 1.2 40.3-5.2 60.5-6.4 20.2-26.9 40.5-33.3 60.7 0.1 21.2 13.6 38 13.8 59.2 0.1 21.2-13.1 46.8-12.9 68 6.7 20.1 24.7 31.9 31.4 52 6.7 20.1 2.1 48.6 8.8 68.7 12.6 17.1 33.4 22.7 45.9 39.8 12.6 17.1 17 45.6 29.5 62.6 17.2 12.3 38.7 11.3 56 23.6 17.2 12.3 30.2 38.1 47.5 50.4 20.2 6.4 40.3-1.2 60.5 5.2 20.2 6.4 40.5 26.9 60.7 33.3 21.2-0.2 38-13.6 59.2-13.8 21.2-0.1 46.8 13.1 68 12.9 20.1-6.7 31.9-24.7 52-31.4 20.1-6.7 48.6-2.1 68.7-8.8 17.1-12.6 22.7-33.4 39.8-45.9 17.1-12.6 45.6-17 62.6-29.5 12.3-17.2 11.3-38.7 23.6-56 12.3-17.2 38.1-30.2 50.4-47.5 6.4-20.2-1.2-40.3 5.2-60.5 6.2-20.4 26.7-40.7 33.1-60.9zM792 544.4c-9.1 17.9-31.4 33.8-40.6 51.7-9.1 17.9-5.1 37.9-14.2 55.8-14.2 14.2-40.3 22.4-54.6 36.6-14.2 14.2-16.5 34.5-30.8 48.7-17.9 9.1-45.3 8.8-63.2 18-17.9 9.1-26.4 27.7-44.3 36.8-19.9 3.1-45.8-5.6-65.7-2.5-19.9 3.1-33.7 18.2-53.5 21.3-19.9-3.1-41.8-19.5-61.7-22.6-19.9-3.2-37.6 6.9-57.5 3.7-17.9-9.1-33.8-31.5-51.7-40.6-17.9-9.1-37.9-5.1-55.9-14.2-14.2-14.2-22.4-40.3-36.6-54.6-14.2-14.2-34.5-16.6-48.7-30.8-9.1-17.9-8.8-45.3-18-63.2-9.1-17.9-27.7-26.4-36.8-44.3-3.1-19.9 5.6-45.8 2.5-65.7-3.2-19.9-18.2-33.7-21.3-53.5 3.2-19.9 19.5-41.8 22.6-61.7 3.1-19.9-6.9-37.6-3.7-57.5 9.1-17.9 31.5-33.8 40.6-51.7 9.1-17.9 5.1-37.9 14.2-55.9 14.2-14.2 40.3-22.4 54.6-36.6 14.2-14.2 16.6-34.5 30.8-48.7 17.9-9.1 45.3-8.8 63.2-18 17.9-9.1 26.4-27.7 44.3-36.8 19.9-3.1 45.8 5.6 65.7 2.5 19.9-3.1 33.7-18.2 53.5-21.3 19.9 3.1 41.8 19.5 61.7 22.6 19.9 3.2 37.6-6.9 57.5-3.7 17.9 9.1 33.8 31.5 51.7 40.6 17.9 9.1 37.9 5.1 55.9 14.2 14.2 14.2 22.4 40.3 36.6 54.6 14.2 14.2 34.5 16.6 48.7 30.8 9.1 17.9 8.8 45.3 18 63.2 9.1 17.9 27.7 26.4 36.8 44.3 3.2 19.9-5.6 45.8-2.5 65.7 3.1 19.9 18.2 33.7 21.3 53.5-3.1 19.9-19.5 41.8-22.6 61.7-3.1 19.9 6.9 37.7 3.7 57.6z" fill="#8abe53" fill-rule="nonzero" stroke="none" stroke-width="1" stroke-linecap="butt" stroke-linejoin="miter" stroke-miterlimit="10" stroke-dasharray="" stroke-dashoffset="0" font-family="none" font-weight="none" font-size="none" text-anchor="none" style="mix-blend-mode: normal" data-fill-palette-color="tertiary"></path></g><g transform="matrix(1,0,0,1,96.07563510835548,80.99999999999999)"><svg viewBox="0 0 127.84872978328903 198.00000000000003" height="198.00000000000003" width="127.84872978328903"><g><svg viewBox="0 0 127.84872978328903 198.00000000000003" height="198.00000000000003" width="127.84872978328903"><g><svg viewBox="0 0 224 346.9099777149073" height="198.00000000000003" width="127.84872978328903"><g transform="matrix(1,0,0,1,0,146.96606222212841)"><svg viewBox="0 0 224 199.94391549277887" height="199.94391549277887" width="224"><g id="textblocktransform"><svg viewBox="0 0 224 199.94391549277887" height="199.94391549277887" width="224" id="textblock"><g><svg viewBox="0 0 224 152.6641883519207" height="152.6641883519207" width="224"><g transform="matrix(1,0,0,1,0,0)"><svg width="224" viewBox="4.56 -34.81 51.07 34.81" height="152.6641883519207" data-palette-color="#8abe53"><path d="M4.56-2.03L4.56-32.72Q4.56-33.67 5.16-34.24 5.76-34.81 6.58-34.81L6.58-34.81 23.8-34.81Q24.68-34.81 25.13-34.27 25.57-33.73 25.57-33.04 25.57-32.34 25.13-31.8 24.68-31.27 23.8-31.27L23.8-31.27 8.86-31.27 8.86-19.87 23.16-19.87Q24.05-19.87 24.53-19.34 25-18.8 25-18.13 25-17.47 24.53-16.9 24.05-16.33 23.16-16.33L23.16-16.33 8.86-16.33 8.86-2.03Q8.86-0.57 7.47-0.13L7.47-0.13Q7.09 0 6.49 0 5.89 0 5.22-0.51 4.56-1.01 4.56-2.03L4.56-2.03ZM40.06-31.27L30.5-31.27Q29.62-31.27 29.14-31.8 28.67-32.34 28.67-33.04 28.67-33.73 29.14-34.27 29.62-34.81 30.5-34.81L30.5-34.81 53.79-34.81Q54.74-34.81 55.19-34.27 55.63-33.73 55.63-33.07 55.63-32.41 55.19-31.84 54.74-31.27 53.79-31.27L53.79-31.27 44.43-31.27 44.43-2.09Q44.43-0.57 43.04-0.13L43.04-0.13Q42.66 0 42.05 0 41.45 0 40.76-0.54 40.06-1.08 40.06-2.09L40.06-2.09 40.06-31.27Z" opacity="1" transform="matrix(1,0,0,1,0,0)" fill="#8abe53" class="wordmark-text-0" data-fill-palette-color="primary" id="text-0"></path></svg></g></svg></g><g transform="matrix(1,0,0,1,0,174.94155737298638)"><svg viewBox="0 0 224 25.00235811979249" height="25.00235811979249" width="224"><g transform="matrix(1,0,0,1,0,0)"><svg width="224" viewBox="2.64 -31.61 365.54 40.81" height="25.00235811979249" data-palette-color="#096a2e"><path d="M7.13-23.45L7.13-23.45Q7.13-22.24 7.93-21.18 8.74-20.11 10-19.43 11.26-18.74 12.87-18.22 14.48-17.7 16.26-17.13 18.05-16.55 19.77-15.86 21.49-15.17 22.76-14.14L22.76-14.14Q25.52-11.9 25.52-8.05L25.52-8.05Q25.52-6.21 24.66-4.57 23.79-2.93 22.24-1.84L22.24-1.84Q19.08 0.46 13.79 0.46L13.79 0.46Q8.79 0.46 5-2.07L5-2.07Q2.64-3.56 2.64-4.6L2.64-4.6Q2.64-5.52 3.56-6.09L3.56-6.09Q3.79-6.32 4.14-6.32 4.48-6.32 4.89-6.03 5.29-5.75 5.83-5.34 6.38-4.94 7.21-4.45 8.05-3.97 8.97-3.56L8.97-3.56Q11.26-2.64 13.45-2.7 15.63-2.76 16.95-3.05 18.28-3.33 19.31-4.02L19.31-4.02Q21.49-5.52 21.55-7.82L21.55-7.82Q21.55-10.69 18.74-12.24L18.74-12.24Q17.47-12.93 15.89-13.48 14.31-14.02 12.56-14.54 10.8-15.06 9.08-15.8 7.36-16.55 6.03-17.59L6.03-17.59Q3.22-19.83 3.22-23.33L3.22-23.33Q3.22-25.17 4.11-26.78 5-28.39 6.55-29.43L6.55-29.43Q9.54-31.55 14.02-31.61L14.02-31.61Q20.52-31.61 24.48-27.41L24.48-27.41Q24.71-27.07 24.71-26.64 24.71-26.21 24.68-25.92 24.66-25.63 24.37-25.34L24.37-25.34Q23.97-24.83 23.3-24.83 22.64-24.83 21.9-25.69L21.9-25.69Q20-27.07 18.85-27.47L18.85-27.47Q16.55-28.39 14.37-28.39L14.37-28.39Q11.55-28.39 9.54-27.24L9.54-27.24Q7.13-25.86 7.13-23.45ZM41.72-13.28L41.72-13.28Q42.93-13.28 44.14-13.22L44.14-13.22 44.14-15.06Q44.14-19.54 39.14-19.54L39.14-19.54Q36.89-19.54 35.86-19.14L35.86-19.14Q34.02-18.45 33.22-17.96 32.41-17.47 31.95-17.47 31.49-17.47 31.09-17.82 30.69-18.16 30.69-18.74L30.69-18.74Q30.69-19.2 31.2-19.66L31.2-19.66Q33.91-22.24 39.19-22.24L39.19-22.24Q45.28-22.24 47.01-18.16L47.01-18.16Q47.58-16.72 47.58-14.83L47.58-14.83 47.47-1.55Q47.47-0.8 46.95-0.4 46.43 0 45.8 0 45.17 0 44.65-0.34 44.14-0.69 44.14-1.49L44.14-1.49 44.14-3.56Q42.76-0.57 39.19 0.17L39.19 0.17Q38.1 0.46 36.72 0.46 35.34 0.46 33.99 0.06 32.64-0.34 31.61-1.21L31.61-1.21Q29.48-2.99 29.48-6.03L29.48-6.03Q29.48-13.28 41.72-13.28ZM44.14-8.74L44.14-10.69Q43.22-10.57 42.01-10.57 40.8-10.57 39.54-10.55 38.27-10.52 37.12-10.26 35.97-10 35.05-9.48L35.05-9.48Q33.1-8.45 32.99-6.09L32.99-6.09Q32.99-4.25 34.48-3.22L34.48-3.22Q35.63-2.3 37.76-2.24L37.76-2.24Q40.34-2.24 42.24-3.91L42.24-3.91Q43.96-5.52 44.14-8.74L44.14-8.74ZM72.01-19.54L65.22-2.64Q64.65-1.26 63.99-0.63 63.33 0 62.12 0L62.12 0Q60.91 0 60.25-0.6 59.59-1.21 59.13-2.64L59.13-2.64 51.95-19.54Q51.43-20.52 52.47-21.26L52.47-21.26Q53.04-21.72 53.62-21.84L53.62-21.84Q54.88-21.84 55.22-20.57L55.22-20.57 62.12-4.02 68.79-20.57Q69.19-21.72 70.28-21.84L70.28-21.84Q71.43-21.84 72.01-20.86L72.01-20.86Q72.24-20.52 72.18-20.2 72.12-19.89 72.01-19.54L72.01-19.54ZM80.8-29.43L80.8-29.43Q80.8-28.51 80.16-27.93 79.53-27.36 78.38-27.36 77.23-27.36 76.6-27.93 75.97-28.51 75.97-29.43L75.97-29.43Q75.97-30.23 76.6-30.8 77.23-31.38 78.41-31.38 79.59-31.38 80.19-30.8 80.8-30.23 80.8-29.43ZM76.66-1.72L76.66-20Q76.66-20.86 77.23-21.35 77.81-21.84 78.27-21.84 78.73-21.84 79.02-21.7 79.3-21.55 79.59-21.26L79.59-21.26Q80.22-20.86 80.22-20L80.22-20 80.22-1.72Q80.22-0.86 79.65-0.43 79.07 0 78.38 0L78.38 0Q77.69 0 77.18-0.43 76.66-0.86 76.66-1.72L76.66-1.72ZM87-1.61L87-20.17Q87-20.92 87.58-21.38 88.15-21.84 88.73-21.84L88.73-21.84Q89.93-21.84 90.28-20.92 90.62-20 90.45-18.16L90.45-18.16Q91.14-19.89 93.44-21.15L93.44-21.15Q95.45-22.24 97.43-22.24 99.42-22.24 100.79-21.75 102.17-21.26 103.32-20.23L103.32-20.23Q105.62-18.05 105.62-13.79L105.62-13.79 105.62-1.61Q105.62-0.8 105.02-0.4 104.42 0 103.78 0L103.78 0Q103.09 0 102.58-0.43 102.06-0.86 102.06-1.61L102.06-1.61 102.06-14.02Q102.06-16.72 100.56-18.16L100.56-18.16Q99.19-19.54 97.12-19.54L97.12-19.54Q94.36-19.54 92.4-17.93L92.4-17.93Q90.45-16.21 90.45-12.64L90.45-12.64 90.45-1.61Q90.45-0.8 89.88-0.4 89.3 0 88.61 0L88.61 0Q87.92 0 87.46-0.43 87-0.86 87-1.61L87-1.61ZM121.08-19.48L121.08-19.48Q114.64-19.48 114.64-10.92L114.64-10.92Q114.64-6.9 116.65-4.6L116.65-4.6Q118.38-2.59 121.14-2.53L121.14-2.53Q123.95-2.53 125.91-4.66L125.91-4.66Q127.98-6.9 127.98-10.8L127.98-10.8Q127.98-16.67 124.3-18.74L124.3-18.74Q123.03-19.48 121.08-19.48ZM120.16-22.24L120.16-22.24Q125.79-22.24 128.09-17.93L128.09-17.93 128.09-20.34Q128.21-21.03 128.67-21.44 129.13-21.84 129.76-21.84 130.39-21.84 130.91-21.38 131.42-20.92 131.42-20.17L131.42-20.17 131.42 0.46Q131.42 4.94 128.55 7.13L128.55 7.13Q125.96 9.2 121.08 9.2L121.08 9.2Q116.71 9.2 114.53 7.7L114.53 7.7Q112.8 6.44 112.8 5.63L112.8 5.63Q112.8 5.06 113.18 4.68 113.55 4.31 114.04 4.31 114.53 4.31 114.99 4.63 115.45 4.94 116.08 5.23 116.71 5.52 117.34 5.75L117.34 5.75Q119.01 6.32 120.76 6.32 122.52 6.32 123.81 6.03 125.1 5.75 126.02 5.06L126.02 5.06Q127.98 3.79 127.98 0.69L127.98 0.69 127.98-4.31Q126.31-1.15 122.69-0.23L122.69-0.23Q121.54 0 120.45 0L120.45 0Q115.68 0 113.15-3.28L113.15-3.28Q110.79-6.21 110.79-10.8L110.79-10.8Q110.79-15.69 113.15-18.79L113.15-18.79Q115.62-22.24 120.16-22.24ZM152.91 6.32L155.5-0.17 147.05-19.48Q146.88-19.83 146.88-20.17 146.88-20.52 147.05-20.83 147.22-21.15 147.45-21.26L147.45-21.26Q148.14-21.72 148.78-21.84L148.78-21.84Q149.98-21.84 150.5-20.69L150.5-20.69 157.34-4.14 164.12-20.69Q164.64-21.84 165.47-21.84 166.3-21.84 166.85-21.35 167.4-20.86 167.4-20.34 167.4-19.83 167.22-19.48L167.22-19.48 156.19 7.36Q155.67 8.51 154.58 8.51L154.58 8.51Q153.89 8.51 153.43 8.16L153.43 8.16Q152.74 7.59 152.74 7.07 152.74 6.55 152.91 6.32L152.91 6.32ZM170.32-10.86L170.32-10.86Q170.32-12.93 170.99-15 171.65-17.07 173.03-18.74L173.03-18.74Q175.9-22.24 181.19-22.24 186.47-22.24 189.35-18.74L189.35-18.74Q192.05-15.4 192.05-10.92L192.05-10.92Q192.05-6.38 189.35-3.1L189.35-3.1Q186.47 0.46 181.19 0.46 175.9 0.46 173.03-3.1L173.03-3.1Q170.32-6.32 170.32-10.86ZM174.06-10.86L174.06-10.86Q174.06-9.48 174.43-7.93 174.81-6.38 175.78-5.06L175.78-5.06Q177.74-2.24 181.19-2.24L181.19-2.24Q184.81-2.24 186.59-5.06L186.59-5.06Q188.26-7.7 188.26-10.92L188.26-10.92Q188.26-14.25 186.59-16.67L186.59-16.67Q184.75-19.54 181.19-19.54L181.19-19.54Q177.74-19.54 175.78-16.67L175.78-16.67Q174.06-14.31 174.06-10.86ZM215.9-20.11L215.9-1.61Q215.9-0.8 215.29-0.4 214.69 0 214.26 0 213.83 0 213.48-0.09 213.14-0.17 212.91-0.46L212.91-0.46Q212.33-0.86 212.33-1.61L212.33-1.61 212.33-3.62Q210.95-0.57 207.28 0.17L207.28 0.17Q206.13 0.46 204.81 0.46 203.48 0.46 202.05 0 200.61-0.46 199.58-1.49L199.58-1.49Q197.28-3.68 197.28-8.05L197.28-8.05 197.28-20.11Q197.28-20.92 197.79-21.38 198.31-21.84 199-21.84L199-21.84Q199.69-21.84 200.21-21.38 200.72-20.92 200.72-20.11L200.72-20.11 200.72-7.76Q200.72-4.66 201.99-3.45L201.99-3.45Q203.25-2.24 205.78-2.24L205.78-2.24Q210.03-2.24 211.64-5.69L211.64-5.69Q212.28-6.9 212.33-8.45L212.33-8.45 212.33-20.11Q212.33-20.92 212.91-21.38 213.48-21.84 214.17-21.84L214.17-21.84Q214.86-21.84 215.38-21.38 215.9-20.92 215.9-20.11L215.9-20.11ZM252.1-17.7L252.1-17.7Q254.86-22.24 260.03-22.24L260.03-22.24Q265.37-22.24 267.16-17.76L267.16-17.76Q267.79-16.09 267.79-13.91L267.79-13.91 267.79-1.61Q267.79-0.8 267.24-0.4 266.7 0 266.06 0L266.06 0Q265.37 0 264.83-0.43 264.28-0.86 264.28-1.61L264.28-1.61 264.28-14.14Q264.28-16.78 262.79-18.28L262.79-18.28Q261.41-19.54 259.23-19.54L259.23-19.54Q254.86-19.54 253.31-15.98L253.31-15.98Q252.67-14.66 252.67-12.76L252.67-12.76 252.67-1.61Q252.67-0.8 252.13-0.4 251.58 0 250.95 0L250.95 0Q250.26 0 249.71-0.43 249.17-0.86 249.17-1.61L249.17-1.61 249.17-14.14Q249.17-16.78 247.73-18.28L247.73-18.28Q246.35-19.54 244.57-19.54 242.79-19.54 241.64-19.14 240.49-18.74 239.57-17.82L239.57-17.82Q237.73-15.98 237.62-12.64L237.62-12.64 237.62-1.61Q237.62-0.8 237.04-0.4 236.47 0 235.83 0 235.2 0 234.63-0.43 234.05-0.86 234.05-1.61L234.05-1.61 234.05-20.17Q234.05-20.92 234.63-21.38 235.2-21.84 235.72-21.84 236.24-21.84 236.52-21.7 236.81-21.55 237.04-21.38L237.04-21.38Q237.62-20.92 237.62-20.23L237.62-20.23 237.62-18.16Q238.42-20.11 240.55-21.21L240.55-21.21Q242.44-22.24 244.97-22.24L244.97-22.24Q248.88-22.24 250.95-19.77L250.95-19.77Q251.64-18.85 252.1-17.7ZM272.96-10.86L272.96-10.86Q272.96-12.93 273.62-15 274.28-17.07 275.66-18.74L275.66-18.74Q278.53-22.24 283.82-22.24 289.11-22.24 291.98-18.74L291.98-18.74Q294.68-15.4 294.68-10.92L294.68-10.92Q294.68-6.38 291.98-3.1L291.98-3.1Q289.11 0.46 283.82 0.46 278.53 0.46 275.66-3.1L275.66-3.1Q272.96-6.32 272.96-10.86ZM276.69-10.86L276.69-10.86Q276.69-9.48 277.07-7.93 277.44-6.38 278.42-5.06L278.42-5.06Q280.37-2.24 283.82-2.24L283.82-2.24Q287.44-2.24 289.22-5.06L289.22-5.06Q290.89-7.7 290.89-10.92L290.89-10.92Q290.89-14.25 289.22-16.67L289.22-16.67Q287.38-19.54 283.82-19.54L283.82-19.54Q280.37-19.54 278.42-16.67L278.42-16.67Q276.69-14.31 276.69-10.86ZM299.91-1.61L299.91-20.17Q299.91-20.92 300.48-21.38 301.06-21.84 301.63-21.84L301.63-21.84Q302.84-21.84 303.19-20.92 303.53-20 303.36-18.16L303.36-18.16Q304.05-19.89 306.35-21.15L306.35-21.15Q308.36-22.24 310.34-22.24 312.32-22.24 313.7-21.75 315.08-21.26 316.23-20.23L316.23-20.23Q318.53-18.05 318.53-13.79L318.53-13.79 318.53-1.61Q318.53-0.8 317.93-0.4 317.32 0 316.69 0L316.69 0Q316 0 315.48-0.43 314.97-0.86 314.97-1.61L314.97-1.61 314.97-14.02Q314.97-16.72 313.47-18.16L313.47-18.16Q312.09-19.54 310.02-19.54L310.02-19.54Q307.27-19.54 305.31-17.93L305.31-17.93Q303.36-16.21 303.36-12.64L303.36-12.64 303.36-1.61Q303.36-0.8 302.78-0.4 302.21 0 301.52 0L301.52 0Q300.83 0 300.37-0.43 299.91-0.86 299.91-1.61L299.91-1.61ZM344.68-11.55L344.68-11.55Q344.68-10.34 343.3-10.23L343.3-10.23 327.55-10.23Q327.78-4.37 332.15-2.64L332.15-2.64Q333.36-2.24 334.91-2.24L334.91-2.24Q338.13-2.24 341.46-4.6L341.46-4.6Q342.49-5.17 343.18-4.48L343.18-4.48Q343.53-4.14 343.41-3.79L343.41-3.79Q343.41-2.99 343.01-2.64L343.01-2.64Q339.85 0.52 334.68 0.46L334.68 0.46Q329.97 0.46 327.09-2.59L327.09-2.59Q323.87-5.75 323.87-10.92L323.87-10.92Q323.87-15.69 326.52-18.79L326.52-18.79Q329.28-22.24 334.33-22.24L334.33-22.24Q339.39-22.24 342.03-19.2L342.03-19.2Q344.56-16.44 344.68-11.55ZM327.67-12.59L341.29-12.59Q341.11-15.69 339.28-17.7L339.28-17.7Q337.55-19.54 334.33-19.54L334.33-19.54Q331.57-19.54 329.62-17.47L329.62-17.47Q327.84-15.4 327.67-12.59L327.67-12.59ZM353.7 6.32L356.28-0.17 347.84-19.48Q347.66-19.83 347.66-20.17 347.66-20.52 347.84-20.83 348.01-21.15 348.24-21.26L348.24-21.26Q348.93-21.72 349.56-21.84L349.56-21.84Q350.77-21.84 351.28-20.69L351.28-20.69 358.12-4.14 364.91-20.69Q365.42-21.84 366.26-21.84 367.09-21.84 367.63-21.35 368.18-20.86 368.18-20.34 368.18-19.83 368.01-19.48L368.01-19.48 356.97 7.36Q356.46 8.51 355.36 8.51L355.36 8.51Q354.68 8.51 354.22 8.16L354.22 8.16Q353.53 7.59 353.53 7.07 353.53 6.55 353.7 6.32L353.7 6.32Z" opacity="1" transform="matrix(1,0,0,1,0,0)" fill="#096a2e" class="slogan-text-1" data-fill-palette-color="secondary" id="text-1"></path></svg></g></svg></g></svg></g></svg></g><g transform="matrix(1,0,0,1,42.784000000000006,0)"><svg viewBox="0 0 138.432 124.68869320106275" height="124.68869320106275" width="138.432"><g><svg xmlns="http://www.w3.org/2000/svg" xmlns:xlink="http://www.w3.org/1999/xlink" version="1.1" x="0" y="0" viewBox="-7.612360745988159e-12 2.384 47.99707231152571 43.232000000007616" enable-background="new 0 0 48 48" xml:space="preserve" id="icon-0" width="138.432" height="124.68869320106275" class="icon-icon-0" data-fill-palette-color="accent"><g fill="#6b7280" data-fill-palette-color="accent"><path d="M47.745 7.611H40.669A0.256 0.256 0 0 0 40.413 7.867V10.385H32.96C32.45 5.89 28.629 2.384 24 2.384S15.55 5.89 15.04 10.385H7.636C7.619 10.385 7.604 10.394 7.587 10.395V7.867A0.256 0.256 0 0 0 7.331 7.611H0.255A0.256 0.256 0 0 0 0 7.867V14.942C0 15.083 0.114 15.197 0.255 15.197H7.331A0.256 0.256 0 0 0 7.587 14.942V12.417C7.604 12.418 7.619 12.427 7.636 12.427H15.04A9 9 0 0 0 16.063 15.692 1 1 0 0 0 15.776 15.999L8.26 28.629A1 1 0 0 0 8.136 29.174H5.711A0.256 0.256 0 0 0 5.455 29.43V36.504C5.455 36.645 5.57 36.759 5.711 36.759H12.787A0.255 0.255 0 0 0 13.042 36.504V29.43A0.256 0.256 0 0 0 12.787 29.174H10.313L17.302 17.429A9 9 0 0 0 22.978 20.366V38.03H20.46A0.256 0.256 0 0 0 20.205 38.286V45.361C20.205 45.502 20.319 45.616 20.46 45.616H27.536A0.256 0.256 0 0 0 27.792 45.361V38.286A0.256 0.256 0 0 0 27.536 38.03H25.02V20.364A9 9 0 0 0 30.696 17.427L37.685 29.172H35.211A0.256 0.256 0 0 0 34.956 29.428V36.502C34.956 36.643 35.07 36.757 35.211 36.757H42.287A0.256 0.256 0 0 0 42.543 36.502V29.428A0.256 0.256 0 0 0 42.287 29.172H39.861A1 1 0 0 0 39.737 28.627L32.221 15.997A1 1 0 0 0 31.934 15.69 8.9 8.9 0 0 0 32.957 12.425H40.41V14.941C40.41 15.082 40.525 15.196 40.666 15.196H47.742A0.255 0.255 0 0 0 47.997 14.941V7.867A0.25 0.25 0 0 0 47.745 7.611M24.406 15.696V17.152H23.523V15.739C22.71 15.723 21.873 15.472 21.382 15.122L21.717 14.184A3.75 3.75 0 0 0 23.735 14.786C24.729 14.786 25.399 14.212 25.399 13.412 25.399 12.645 24.854 12.17 23.818 11.749 22.389 11.188 21.507 10.543 21.507 9.325 21.507 8.165 22.332 7.282 23.62 7.074V5.657H24.489V7.016C25.331 7.043 25.902 7.269 26.308 7.505L25.961 8.43A3.4 3.4 0 0 0 24.196 7.952C23.118 7.952 22.711 8.598 22.711 9.159 22.711 9.886 23.23 10.251 24.449 10.755 25.89 11.341 26.617 12.071 26.617 13.316 26.617 14.421 25.849 15.459 24.406 15.696" fill="#6b7280" data-fill-palette-color="accent"></path></g></svg></g></svg></g><g></g></svg></g></svg></g></svg></g></svg></g><defs></defs></svg><rect width="320" height="360" fill="none" stroke="none" visibility="hidden"></rect></g></svg></g></svg>